# xmcd
#
# Track frame offsets:
#	150
#	17464
#	34276
#	62427
#	78616
#	96403
#	114849
#	127521
#	145315
#	166371
#	185230
#	203069
#	217181
#	234810
#	250796
#	268050
#	283204
#	305633
#
# Disc length: 4321
#
# Revision: 1
# Processed by: cddbd v1.5.1PL0 Copyright (c) Steve Scherf et al.
# Submitted via: CDex 1.51
# Normalized: r0:DSETVAR1,TSWAP
#
DISCID=0210df12
DTITLE=Various Artist - The Best 80's Party Album .... Ever!
DYEAR=1900
DGENRE=New Age
TTITLE0=A-ha - Take On Me
TTITLE1=When In Rome - The Promise
TTITLE2=Alphaville - Forever Young
TTITLE3=Erasure - A little Respect
TTITLE4=Giorgio Moroder and Philip Oakey - Together In Electric Dreams
TTITLE5=Ken Kan - I Beg Your Pardon
TTITLE6=Men Without Hats - Te Safety Dance
TTITLE7=Nena - 00 Luftballons
TTITLE8=Information Society - What's On Your Mind (Pure Energy)
TTITLE9=Toni Basil - Mickey
TTITLE10=Cyndi Lauper - Girls Just Wanna Have Fun
TTITLE11=Yazoo - Don't Go
TTITLE12=Freeez - I.O.U.
TTITLE13=Toto Coelo - I Eat Cannibals
TTITLE14=Eddy Grant - Gimme Hope Joanna
TTITLE15=Dead Or Alive - You Spin Me Round (Like A Record)
TTITLE16=Starship - We Built This City
TTITLE17=Spagna - Call Me
EXTD=
EXTT0=
EXTT1=
EXTT2=
EXTT3=
EXTT4=
EXTT5=
EXTT6=
EXTT7=
EXTT8=
EXTT9=
EXTT10=
EXTT11=
EXTT12=
EXTT13=
EXTT14=
EXTT15=
EXTT16=
EXTT17=
PLAYORDER=
